<svg width="25" height="25" viewBox="0 0 25 25" fill="none" xmlns="http://www.w3.org/2000/svg">
<path d="M20.8998 18.6979L21.0598 16.6991C21.0999 16.1955 21.2985 15.7178 21.6262 15.3333L22.9262 13.8061C23.6909 12.9088 23.6907 11.5896 22.9261 10.6923L21.626 9.16588C21.2984 8.78138 21.0995 8.30324 21.0594 7.79966L20.9005 5.80116C20.8067 4.62599 19.8732 3.69254 18.6981 3.59876L16.6993 3.43885C16.1957 3.39866 15.7183 3.20179 15.3338 2.87411L13.8076 1.57349C12.9103 0.808836 11.5897 0.808836 10.6925 1.57349L9.16606 2.87354C8.78156 3.20121 8.30342 3.39976 7.79983 3.43995L5.80097 3.59946M20.901 18.6987C20.8073 19.8739 19.8741 20.8071 18.6989 20.9009M18.6983 20.8997L16.6994 21.0592C16.1958 21.0994 15.7179 21.297 15.3334 21.6246L13.8076 22.9259C12.9103 23.6906 11.5896 23.6907 10.6923 22.926L9.16644 21.626C8.78194 21.2983 8.30406 21.0998 7.80048 21.0596L5.80097 20.8997M5.80216 20.9009C4.62699 20.8071 3.69382 19.8739 3.60004 18.6987L3.44013 16.6992C3.39994 16.1956 3.20139 15.7178 2.87372 15.3333L1.57367 13.8074C0.809016 12.9101 0.808657 11.5894 1.57331 10.6921L2.87453 9.16626C3.2022 8.78176 3.39884 8.30388 3.43903 7.8003L3.59894 5.80079M3.60004 5.80198C3.69382 4.62681 4.62699 3.69364 5.80216 3.59986" stroke="black" stroke-width="2" stroke-linecap="round" stroke-linejoin="round"/>
</svg>
