<svg width="27" height="22" viewBox="0 0 27 22" fill="none" xmlns="http://www.w3.org/2000/svg">
<path d="M1 21H3.5M3.5 21H9.75M3.5 21V5.00024C3.5 3.60011 3.5 2.89953 3.77248 2.36475C4.01217 1.89434 4.39434 1.51217 4.86475 1.27248C5.39953 1 6.10011 1 7.50024 1H9.50024C10.9004 1 11.5995 1 12.1342 1.27248C12.6046 1.51217 12.9881 1.89434 13.2278 2.36475C13.5 2.899 13.5 3.59874 13.5 4.99614V8.50024M9.75 21H23.5M9.75 21V13.9602C9.75 13.3035 9.75 12.975 9.82875 12.6687C9.89854 12.3972 10.0134 12.1398 10.1687 11.9065C10.3438 11.6433 10.5889 11.423 11.0769 10.9846L13.9539 8.39997C14.8973 7.5524 15.3694 7.1283 15.9031 6.96741C16.3737 6.82557 16.8759 6.82557 17.3464 6.96741C17.8806 7.12843 18.3533 7.55275 19.2983 8.40173L22.1733 10.9846C22.6619 11.4235 22.9056 11.6432 23.0809 11.9065C23.2361 12.1398 23.3509 12.3972 23.4207 12.6687C23.4994 12.975 23.5 13.3035 23.5 13.9602V21M23.5 21H26" stroke="black" stroke-width="2" stroke-linecap="round" stroke-linejoin="round"/>
</svg>
