<svg width="25" height="21" viewBox="0 0 25 21" fill="none" xmlns="http://www.w3.org/2000/svg">
<path d="M23.5 19.7499C23.5 17.5729 21.413 15.7208 18.5 15.0344M16 19.75C16 16.9886 12.6421 14.75 8.5 14.75C4.35786 14.75 1 16.9886 1 19.75M16 11C18.7614 11 21 8.76142 21 6C21 3.23858 18.7614 1 16 1M8.5 11C5.73858 11 3.5 8.76142 3.5 6C3.5 3.23858 5.73858 1 8.5 1C11.2614 1 13.5 3.23858 13.5 6C13.5 8.76142 11.2614 11 8.5 11Z" stroke="black" stroke-width="2" stroke-linecap="round" stroke-linejoin="round"/>
</svg>
