<svg width="20" height="20" viewBox="0 0 20 20" fill="none" xmlns="http://www.w3.org/2000/svg">
<path d="M16 17.25C16 17.9404 16.5596 18.5 17.25 18.5C17.9404 18.5 18.5 17.9404 18.5 17.25C18.5 16.5596 17.9404 16 17.25 16C16.5596 16 16 16.5596 16 17.25Z" stroke="black" stroke-width="2" stroke-linecap="round" stroke-linejoin="round"/>
<path d="M8.5 17.25C8.5 17.9404 9.05964 18.5 9.75 18.5C10.4404 18.5 11 17.9404 11 17.25C11 16.5596 10.4404 16 9.75 16C9.05964 16 8.5 16.5596 8.5 17.25Z" stroke="black" stroke-width="2" stroke-linecap="round" stroke-linejoin="round"/>
<path d="M1 17.25C1 17.9404 1.55964 18.5 2.25 18.5C2.94036 18.5 3.5 17.9404 3.5 17.25C3.5 16.5596 2.94036 16 2.25 16C1.55964 16 1 16.5596 1 17.25Z" stroke="black" stroke-width="2" stroke-linecap="round" stroke-linejoin="round"/>
<path d="M16 9.75C16 10.4404 16.5596 11 17.25 11C17.9404 11 18.5 10.4404 18.5 9.75C18.5 9.05964 17.9404 8.5 17.25 8.5C16.5596 8.5 16 9.05964 16 9.75Z" stroke="black" stroke-width="2" stroke-linecap="round" stroke-linejoin="round"/>
<path d="M8.5 9.75C8.5 10.4404 9.05964 11 9.75 11C10.4404 11 11 10.4404 11 9.75C11 9.05964 10.4404 8.5 9.75 8.5C9.05964 8.5 8.5 9.05964 8.5 9.75Z" stroke="black" stroke-width="2" stroke-linecap="round" stroke-linejoin="round"/>
<path d="M1 9.75C1 10.4404 1.55964 11 2.25 11C2.94036 11 3.5 10.4404 3.5 9.75C3.5 9.05964 2.94036 8.5 2.25 8.5C1.55964 8.5 1 9.05964 1 9.75Z" stroke="black" stroke-width="2" stroke-linecap="round" stroke-linejoin="round"/>
<path d="M16 2.25C16 2.94036 16.5596 3.5 17.25 3.5C17.9404 3.5 18.5 2.94036 18.5 2.25C18.5 1.55964 17.9404 1 17.25 1C16.5596 1 16 1.55964 16 2.25Z" stroke="black" stroke-width="2" stroke-linecap="round" stroke-linejoin="round"/>
<path d="M8.5 2.25C8.5 2.94036 9.05964 3.5 9.75 3.5C10.4404 3.5 11 2.94036 11 2.25C11 1.55964 10.4404 1 9.75 1C9.05964 1 8.5 1.55964 8.5 2.25Z" stroke="black" stroke-width="2" stroke-linecap="round" stroke-linejoin="round"/>
<path d="M1 2.25C1 2.94036 1.55964 3.5 2.25 3.5C2.94036 3.5 3.5 2.94036 3.5 2.25C3.5 1.55964 2.94036 1 2.25 1C1.55964 1 1 1.55964 1 2.25Z" stroke="black" stroke-width="2" stroke-linecap="round" stroke-linejoin="round"/>
</svg>
