<svg width="23" height="23" viewBox="0 0 23 23" fill="none" xmlns="http://www.w3.org/2000/svg">
<path d="M4.38469 11.4556L7.03634 14.1073M7.91984 7.91984L10.5715 10.5715M11.455 4.38469L14.1067 7.03634M2.79289 13.0459L13.0459 2.79289C14.036 1.80285 14.5315 1.30783 15.1023 1.12236C15.6044 0.959214 16.1452 0.959214 16.6473 1.12236C17.2178 1.30772 17.7123 1.80229 18.7012 2.79121L20.1171 4.2071C21.1072 5.19714 21.6028 5.69333 21.7882 6.26415C21.9514 6.76626 21.951 7.30604 21.7879 7.80815C21.6024 8.37897 21.1075 8.87438 20.1175 9.86442L9.86442 20.1175C8.87438 21.1075 8.37897 21.6024 7.80815 21.7879C7.30604 21.951 6.76626 21.9514 6.26415 21.7882C5.69333 21.6028 5.19714 21.1072 4.2071 20.1171L2.79121 18.7012C1.80229 17.7123 1.30772 17.2178 1.12236 16.6473C0.959214 16.1452 0.959214 15.6044 1.12236 15.1023C1.30783 14.5315 1.80285 14.036 2.79289 13.0459Z" stroke="black" stroke-width="2" stroke-linecap="round" stroke-linejoin="round"/>
</svg>
