<svg width="24" height="22" viewBox="0 0 24 22" fill="none" xmlns="http://www.w3.org/2000/svg">
<path d="M6.76172 6H5.2334C3.60887 6 2.79728 6 2.21948 6.33143C1.71244 6.62227 1.32268 7.08168 1.11916 7.62964C0.887375 8.25367 1.02079 9.05416 1.28753 10.6546L1.28809 10.6576L2.45475 17.6576C2.65266 18.8451 2.75227 19.439 3.04856 19.8846C3.30973 20.2773 3.67635 20.5878 4.10669 20.7809C4.59489 20.9999 5.19655 21 6.40039 21H17.1234C18.3272 21 18.9285 20.9999 19.4167 20.7809C19.847 20.5878 20.2139 20.2773 20.4751 19.8846C20.7714 19.439 20.8705 18.8451 21.0684 17.6576L22.235 10.6576L22.2362 10.6527C22.5027 9.05354 22.636 8.25343 22.4044 7.62964C22.2008 7.08168 21.812 6.62227 21.305 6.33143C20.7272 6 19.9142 6 18.2897 6H16.7617M6.76172 6H16.7617M6.76172 6C6.76172 3.23858 9.0003 1 11.7617 1C14.5231 1 16.7617 3.23858 16.7617 6" stroke="black" stroke-width="2" stroke-linecap="round" stroke-linejoin="round"/>
</svg>
