<svg width="17" height="21" viewBox="0 0 17 21" fill="none" xmlns="http://www.w3.org/2000/svg">
<path d="M14.25 0H2.25C1.65326 0 1.08097 0.237053 0.65901 0.65901C0.237053 1.08097 0 1.65326 0 2.25V18.75C0 19.3467 0.237053 19.919 0.65901 20.341C1.08097 20.7629 1.65326 21 2.25 21H14.25C14.8467 21 15.419 20.7629 15.841 20.341C16.2629 19.919 16.5 19.3467 16.5 18.75V2.25C16.5 1.65326 16.2629 1.08097 15.841 0.65901C15.419 0.237053 14.8467 0 14.25 0ZM15 18.75C15 18.9489 14.921 19.1397 14.7803 19.2803C14.6397 19.421 14.4489 19.5 14.25 19.5H2.25C2.05109 19.5 1.86032 19.421 1.71967 19.2803C1.57902 19.1397 1.5 18.9489 1.5 18.75V2.25C1.5 2.05109 1.57902 1.86032 1.71967 1.71967C1.86032 1.57902 2.05109 1.5 2.25 1.5H14.25C14.4489 1.5 14.6397 1.57902 14.7803 1.71967C14.921 1.86032 15 2.05109 15 2.25V18.75ZM8.0325 6.9675C8.1028 7.03722 8.15859 7.12017 8.19667 7.21157C8.23475 7.30296 8.25435 7.40099 8.25435 7.5C8.25435 7.59901 8.23475 7.69704 8.19667 7.78843C8.15859 7.87983 8.1028 7.96278 8.0325 8.0325L5.7825 10.2825C5.71278 10.3528 5.62983 10.4086 5.53843 10.4467C5.44704 10.4847 5.34901 10.5043 5.25 10.5043C5.15099 10.5043 5.05296 10.4847 4.96157 10.4467C4.87017 10.4086 4.78722 10.3528 4.7175 10.2825L3.2175 8.7825C3.07627 8.64127 2.99693 8.44973 2.99693 8.25C2.99693 8.05027 3.07627 7.85873 3.2175 7.7175C3.35873 7.57627 3.55027 7.49693 3.75 7.49693C3.94973 7.49693 4.14127 7.57627 4.2825 7.7175L5.25 8.6925L6.9675 6.9675C7.03722 6.8972 7.12017 6.84141 7.21157 6.80333C7.30296 6.76525 7.40099 6.74565 7.5 6.74565C7.59901 6.74565 7.69704 6.76525 7.78843 6.80333C7.87983 6.84141 7.96278 6.8972 8.0325 6.9675ZM7.2825 14.7825L6.3075 15.75L7.2825 16.7175C7.3528 16.7872 7.40859 16.8702 7.44667 16.9616C7.48475 17.053 7.50435 17.151 7.50435 17.25C7.50435 17.349 7.48475 17.447 7.44667 17.5384C7.40859 17.6298 7.3528 17.7128 7.2825 17.7825C7.21278 17.8528 7.12983 17.9086 7.03843 17.9467C6.94704 17.9847 6.84901 18.0043 6.75 18.0043C6.65099 18.0043 6.55296 17.9847 6.46157 17.9467C6.37017 17.9086 6.28722 17.8528 6.2175 17.7825L5.25 16.8075L4.2825 17.7825C4.21278 17.8528 4.12983 17.9086 4.03843 17.9467C3.94704 17.9847 3.84901 18.0043 3.75 18.0043C3.65099 18.0043 3.55296 17.9847 3.46157 17.9467C3.37017 17.9086 3.28722 17.8528 3.2175 17.7825C3.1472 17.7128 3.09141 17.6298 3.05333 17.5384C3.01526 17.447 2.99565 17.349 2.99565 17.25C2.99565 17.151 3.01526 17.053 3.05333 16.9616C3.09141 16.8702 3.1472 16.7872 3.2175 16.7175L4.1925 15.75L3.2175 14.7825C3.07627 14.6413 2.99693 14.4497 2.99693 14.25C2.99693 14.0503 3.07627 13.8587 3.2175 13.7175C3.35873 13.5763 3.55027 13.4969 3.75 13.4969C3.94973 13.4969 4.14127 13.5763 4.2825 13.7175L5.25 14.6925L6.2175 13.7175C6.28743 13.6476 6.37045 13.5921 6.46181 13.5543C6.55318 13.5164 6.65111 13.4969 6.75 13.4969C6.84889 13.4969 6.94682 13.5164 7.03819 13.5543C7.12955 13.5921 7.21257 13.6476 7.2825 13.7175C7.35243 13.7874 7.4079 13.8704 7.44574 13.9618C7.48359 14.0532 7.50307 14.1511 7.50307 14.25C7.50307 14.3489 7.48359 14.4468 7.44574 14.5382C7.4079 14.6296 7.35243 14.7126 7.2825 14.7825ZM12 16.5C12 16.6989 11.921 16.8897 11.7803 17.0303C11.6397 17.171 11.4489 17.25 11.25 17.25H9.75C9.55109 17.25 9.36032 17.171 9.21967 17.0303C9.07902 16.8897 9 16.6989 9 16.5C9 16.3011 9.07902 16.1103 9.21967 15.9697C9.36032 15.829 9.55109 15.75 9.75 15.75H11.25C11.4489 15.75 11.6397 15.829 11.7803 15.9697C11.921 16.1103 12 16.3011 12 16.5ZM13.5 14.25C13.5 14.4489 13.421 14.6397 13.2803 14.7803C13.1397 14.921 12.9489 15 12.75 15H9.75C9.55109 15 9.36032 14.921 9.21967 14.7803C9.07902 14.6397 9 14.4489 9 14.25C9 14.0511 9.07902 13.8603 9.21967 13.7197C9.36032 13.579 9.55109 13.5 9.75 13.5H12.75C12.9489 13.5 13.1397 13.579 13.2803 13.7197C13.421 13.8603 13.5 14.0511 13.5 14.25ZM9 9.75C9 9.55109 9.07902 9.36032 9.21967 9.21967C9.36032 9.07902 9.55109 9 9.75 9H11.25C11.4489 9 11.6397 9.07902 11.7803 9.21967C11.921 9.36032 12 9.55109 12 9.75C12 9.94891 11.921 10.1397 11.7803 10.2803C11.6397 10.421 11.4489 10.5 11.25 10.5H9.75C9.55109 10.5 9.36032 10.421 9.21967 10.2803C9.07902 10.1397 9 9.94891 9 9.75ZM13.5 7.5C13.5 7.69891 13.421 7.88968 13.2803 8.03033C13.1397 8.17098 12.9489 8.25 12.75 8.25H9.75C9.55109 8.25 9.36032 8.17098 9.21967 8.03033C9.07902 7.88968 9 7.69891 9 7.5C9 7.30109 9.07902 7.11032 9.21967 6.96967C9.36032 6.82902 9.55109 6.75 9.75 6.75H12.75C12.9489 6.75 13.1397 6.82902 13.2803 6.96967C13.421 7.11032 13.5 7.30109 13.5 7.5ZM13.5 3.75C13.5 3.94891 13.421 4.13968 13.2803 4.28033C13.1397 4.42098 12.9489 4.5 12.75 4.5H3.75C3.55109 4.5 3.36032 4.42098 3.21967 4.28033C3.07902 4.13968 3 3.94891 3 3.75C3 3.55109 3.07902 3.36032 3.21967 3.21967C3.36032 3.07902 3.55109 3 3.75 3H12.75C12.9489 3 13.1397 3.07902 13.2803 3.21967C13.421 3.36032 13.5 3.55109 13.5 3.75Z" fill="#242424"/>
</svg>
